<svg id="Group_7546" data-name="Group 7546" xmlns="http://www.w3.org/2000/svg" xmlns:xlink="http://www.w3.org/1999/xlink" width="2500" height="518.999" viewBox="0 0 2500 518.999">
  <defs>
    <clipPath id="clip-path">
      <rect id="Rectangle_2429" data-name="Rectangle 2429" width="2500" height="518.999" fill="none"/>
    </clipPath>
  </defs>
  <g id="Group_7545" data-name="Group 7545" clip-path="url(#clip-path)">
    <path id="Path_11409" data-name="Path 11409" d="M530.5,197.158h64.79c15.275,0,25.81,2.634,32.131,8.428,6.321,5.267,8.955,15.276,8.955,28.971v24.23H599.5V239.824c0-5.794-1.054-9.481-3.161-11.588s-6.848-3.161-13.7-3.161h-13.7V343.593H530.5Z" fill="#8fc73e"/>
    <path id="Path_11410" data-name="Path 11410" d="M646.383,197.158h27.391v-53.2h38.452v53.2h41.086v28.971H712.226v59c0,11.061,2.107,18.436,5.794,22.65s10.009,6.321,19.49,6.321h15.8v28.97H718.02c-14.222,0-25.283-3.687-32.658-12.115-7.374-7.9-11.588-19.489-11.588-34.238V225.076H646.383Z" fill="#8fc73e"/>
    <path id="Path_11411" data-name="Path 11411" d="M908.7,343.593H836.011c-21.6,0-36.872-4.214-46.353-12.642s-14.223-22.123-14.223-41.086V197.158h38.453V286.7c0,10.008,1.58,16.329,5.267,19.489q4.741,4.742,20.543,4.741h31.078v-114.3h38.453V343.593Z" fill="#8fc73e"/>
    <path id="Path_11412" data-name="Path 11412" d="M941.36,313.042h81.646q11.061,0,15.8-3.161t4.741-11.061c0-4.741-1.581-8.428-5.268-11.062-3.16-2.107-8.428-3.687-15.8-3.687H989.294c-20.017,0-33.185-3.161-40.033-8.955s-10.535-16.856-10.535-32.131q0-23.7,12.642-34.766c8.428-7.374,21.6-11.061,38.979-11.061h83.226v30.551H1005.1c-11.062,0-18.436,1.053-21.6,3.16s-5.267,5.268-5.267,10.535c0,4.741,1.58,7.9,4.214,10.008,3.161,2.107,7.374,3.161,13.7,3.161h35.292c15.8,0,28.445,3.687,36.873,11.062s12.641,18.436,12.641,32.131-3.687,24.757-11.061,33.185-16.856,12.642-28.971,12.642H940.833V313.042Z" fill="#8fc73e"/>
    <path id="Path_11413" data-name="Path 11413" d="M1390.674,179.775H1286.905c-11.062,0-19.49,2.107-24.757,6.321s-7.9,10.535-7.9,20.016c0,7.375,2.107,12.642,6.847,16.329,4.214,3.688,11.062,5.268,20.017,5.268h55.308c23.177,0,39.506,4.214,48.987,13.168,9.482,8.428,14.749,23.177,14.749,43.194,0,20.543-5.794,35.818-16.856,45.3s-28.971,14.222-52.674,14.222h-112.2V307.774h105.349c12.115,0,20.543-1.58,25.284-5.267s7.374-9.481,7.374-17.383c0-8.428-2.107-14.222-6.847-17.909-4.214-3.687-12.115-5.267-23.177-5.267H1276.9c-23.177,0-40.033-4.741-50.568-13.7s-15.8-23.7-15.8-43.72c0-21.069,5.794-36.872,16.856-46.353,11.062-10.008,28.971-14.749,53.2-14.749h110.09Z"/>
    <path id="Path_11414" data-name="Path 11414" d="M1573.454,270.375c0,23.177-6.847,41.613-21.069,55.308s-32.659,20.543-56.362,20.543-42.667-6.847-56.889-20.543-21.069-32.131-21.069-54.781c0-23.177,6.847-41.613,21.069-55.308s33.185-20.543,56.889-20.543,42.139,6.847,56.362,20.543c13.695,13.7,21.069,31.6,21.069,54.781m-114.83,0c0,13.7,3.161,24.757,10.008,32.658,6.321,7.9,15.8,11.589,27.391,11.589s20.543-3.688,27.391-11.589,10.008-18.436,10.008-32.658c0-13.7-3.161-24.757-10.008-32.658-6.321-7.9-15.8-11.589-27.391-11.589s-20.543,3.688-27.391,11.589-10.008,18.963-10.008,32.658"/>
    <rect id="Rectangle_2427" data-name="Rectangle 2427" width="40.559" height="199.636" transform="translate(1596.105 143.957)"/>
    <path id="Path_11415" data-name="Path 11415" d="M1802.589,343.593h-73.218c-21.6,0-36.872-4.214-46.353-12.642s-14.222-22.123-14.222-41.086V197.158h38.452V286.7c0,10.008,1.58,16.329,5.268,19.489q4.74,4.742,20.542,4.741h31.078v-114.3h38.453Z"/>
    <path id="Path_11416" data-name="Path 11416" d="M1822.6,197.158H1850v-53.2h38.452v53.2h41.086v28.971h-41.086v59c0,11.061,2.107,18.436,5.794,22.65s10.009,6.321,19.49,6.321h15.8v28.97h-35.292c-14.222,0-25.283-3.687-32.658-12.115-7.374-7.9-11.588-19.489-11.588-34.238V225.076H1822.6Z"/>
    <path id="Path_11417" data-name="Path 11417" d="M1992.744,180.3h-40.559V143.957h40.559Zm0,163.291h-40.559V197.158h40.559Z"/>
    <path id="Path_11418" data-name="Path 11418" d="M2171.837,270.375c0,23.177-6.847,41.613-21.07,55.308s-32.658,20.543-56.361,20.543-42.667-6.847-56.889-20.543-21.07-32.131-21.07-54.781c0-23.177,6.848-41.613,21.07-55.308s33.185-20.543,56.889-20.543,42.139,6.847,56.361,20.543,21.07,31.6,21.07,54.781m-114.83,0c0,13.7,3.16,24.757,10.008,32.658,6.321,7.9,15.8,11.589,27.391,11.589s20.543-3.688,27.391-11.589S2131.8,284.6,2131.8,270.375c0-13.7-3.161-24.757-10.008-32.658-6.321-7.9-15.8-11.589-27.391-11.589s-20.543,3.688-27.391,11.589c-6.321,7.9-10.008,18.963-10.008,32.658"/>
    <path id="Path_11419" data-name="Path 11419" d="M2195.541,197.158h72.691c22.123,0,37.925,4.214,46.88,12.642q14.221,12.642,14.222,41.086v92.707h-38.452V255.627c0-11.062-1.58-17.91-5.268-21.07q-4.74-4.742-20.543-4.741h-31.078v114.3h-38.452Z"/>
    <path id="Path_11420" data-name="Path 11420" d="M2360.412,313.042h81.646q11.061,0,15.8-3.161t4.741-11.061c0-4.741-1.58-8.428-5.268-11.062-3.16-2.107-8.428-3.687-15.8-3.687h-33.185c-20.016,0-33.185-3.161-40.032-8.955-6.848-6.321-10.535-16.856-10.535-32.131q0-23.7,12.642-34.766c8.428-7.374,21.6-11.061,38.979-11.061h83.226v30.551h-68.477c-11.062,0-18.436,1.053-21.6,3.16s-5.267,5.268-5.267,10.535c0,4.741,1.58,7.9,4.214,10.008,3.16,2.107,7.374,3.161,13.7,3.161h35.292c15.8,0,28.444,3.687,36.872,11.062S2500,284.071,2500,297.766s-3.687,24.757-11.061,33.185-16.856,12.642-28.971,12.642H2359.886V313.042Z"/>
    <path id="Path_11421" data-name="Path 11421" d="M803.353,409.963,849.18,514.785H836.011l-13.168-31.078H783.337l-13.169,31.078H757Zm0,26.337-15.8,36.872h32.131Z"/>
    <path id="Path_11422" data-name="Path 11422" d="M938.2,458.423c6.321,2.634,11.588,6.321,14.749,11.062a28.359,28.359,0,0,1,4.741,16.329c0,9.481-3.161,16.856-8.955,22.123-5.794,5.794-13.7,8.428-23.177,8.428-7.9,0-14.749-2.107-20.016-6.321s-8.955-10.008-11.062-17.382l11.062-5.268c1.58,6.321,3.687,10.535,7.374,13.7q4.742,4.74,12.642,4.74c5.794,0,11.062-1.58,14.749-5.267a18.263,18.263,0,0,0,5.794-13.7c0-4.74-1.053-8.428-3.687-11.588a28.78,28.78,0,0,0-11.588-8.428l-12.116-5.268c-6.847-2.633-11.588-6.321-14.748-11.061q-4.741-6.321-4.741-15.8a22.815,22.815,0,0,1,7.9-17.909c5.268-4.741,12.115-6.847,20.543-6.847a31.808,31.808,0,0,1,15.8,3.687A28.3,28.3,0,0,1,954,425.238l-10.008,6.321a31.943,31.943,0,0,0-7.374-8.954c-2.634-2.107-5.794-2.634-9.482-2.634a15.087,15.087,0,0,0-11.061,4.214,15.516,15.516,0,0,0-1.054,20.016c2.107,2.634,5.794,4.741,10.008,6.848Z"/>
    <path id="Path_11423" data-name="Path 11423" d="M967.7,483.18a36.682,36.682,0,0,1,2.634-13.169,33.9,33.9,0,0,1,18.436-18.436,34.246,34.246,0,0,1,26.337,0,33.9,33.9,0,0,1,18.436,18.436,34.238,34.238,0,0,1,0,26.338,33.9,33.9,0,0,1-18.436,18.436,34.246,34.246,0,0,1-26.337,0,33.9,33.9,0,0,1-18.436-18.436c-2.107-4.214-2.634-8.428-2.634-13.169m11.062,0a22.25,22.25,0,0,0,6.848,16.856c4.214,4.741,10.008,6.848,16.329,6.848a20.03,20.03,0,0,0,15.8-6.848c4.214-4.741,6.848-10.008,6.848-16.856a22.25,22.25,0,0,0-6.848-16.856,20.786,20.786,0,0,0-15.8-6.848,21.9,21.9,0,0,0-16.329,6.848,25.37,25.37,0,0,0-6.848,16.856"/>
    <path id="Path_11424" data-name="Path 11424" d="M1055.664,514.785V460.53h-12.115v-8.954h12.115V433.139c0-10.534,1.58-17.382,4.214-21.069s7.374-5.268,14.222-5.268a14.578,14.578,0,0,1,4.741.527,9.923,9.923,0,0,1,4.214,1.054v11.061c-1.581-.527-2.634-1.58-4.214-1.58a11.593,11.593,0,0,0-4.214-.527q-4.742,0-6.321,3.161c-1.054,2.107-1.58,6.847-1.58,14.749V452.1h16.856v8.954h-16.33v54.255h-11.588Z"/>
    <path id="Path_11425" data-name="Path 11425" d="M1095.17,460.53h-11.589v-8.955h11.589V426.292h11.062v25.283h11.588v8.955h-11.588v54.255H1095.17Z"/>
    <path id="Path_11426" data-name="Path 11426" d="M1168.387,449.469l18.963,45.3,16.856-42.666h12.115L1188.4,519l-20.543-48.46L1147.318,519,1119.4,452.1h12.115l16.856,42.666,18.963-45.3Z"/>
    <path id="Path_11427" data-name="Path 11427" d="M1286.379,451.576v62.682h-10.535V503.2a30.913,30.913,0,0,1-9.481,10.535c-3.688,2.633-8.429,3.687-13.17,3.687-8.954,0-16.328-3.161-21.6-9.482s-8.429-14.222-8.429-24.757,2.634-18.436,7.9-24.757,12.642-8.954,21.6-8.954c5.267,0,10.008,1.053,13.7,3.687,3.687,2.107,6.846,5.794,9.481,10.535V452.1h10.535Zm-10.535,32.131a27.634,27.634,0,0,0-5.794-17.383c-3.689-4.213-8.956-6.321-15.276-6.321s-11.588,2.107-15.275,5.8c-3.688,4.214-5.269,9.481-5.269,16.856s1.581,13.7,5.269,17.382c3.687,4.214,8.954,6.321,15.275,6.321s11.589-2.107,15.276-5.794c3.686-4.214,5.794-9.481,5.794-16.856"/>
    <path id="Path_11428" data-name="Path 11428" d="M1307.975,514.785V452.1h9.481v13.169c2.634-5.267,5.795-9.481,8.955-11.588a22,22,0,0,1,12.115-3.688,8.957,8.957,0,0,1,3.687.527c1.054.527,2.634.527,3.688,1.054l-3.688,9.481c-1.053-.527-2.633-.527-3.687-1.054-1.053,0-2.107-.526-3.16-.526q-8.692,0-12.642,6.321c-2.634,4.213-4.214,10.535-4.214,18.436v30.551Z"/>
    <path id="Path_11429" data-name="Path 11429" d="M1413.324,484.761h-50.04v1.053c0,6.848,2.107,12.115,5.794,16.329s8.955,6.321,15.275,6.321a22.557,22.557,0,0,0,11.589-3.16c3.16-2.107,6.321-5.794,8.955-10.535l8.428,5.267a31.257,31.257,0,0,1-12.115,12.642c-4.741,3.161-10.535,4.214-16.856,4.214-9.482,0-17.383-3.16-23.177-9.481s-8.955-14.749-8.955-24.757,3.161-17.91,8.955-24.231,13.168-9.481,22.65-9.481,16.856,3.161,22.123,8.955,7.9,14.222,7.9,24.23v2.634Zm-11.588-8.955c-.527-5.267-2.107-10.008-5.794-12.642-3.161-3.16-7.9-4.741-13.7-4.741a19.259,19.259,0,0,0-13.168,4.741c-3.688,3.161-5.268,7.375-5.8,12.642Z"/>
    <path id="Path_11430" data-name="Path 11430" d="M1472.32,514.785V413.65h23.7a89.429,89.429,0,0,1,14.749,1.054c3.161.526,5.794,2.107,8.428,3.687,3.161,2.107,5.267,5.267,6.848,9.481a34.513,34.513,0,0,1,2.633,13.169c0,8.428-2.107,14.749-6.847,18.963s-11.589,6.321-20.017,6.321h-2.107l38.453,47.934h-15.276l-36.872-47.934h-1.58v47.934H1472.32Zm11.588-90.6V457.9h8.955c9.481,0,15.8-1.054,18.963-3.688s4.74-6.847,4.74-12.641c0-6.321-1.58-11.062-4.74-13.7s-9.482-3.687-18.436-3.687Z"/>
    <path id="Path_11431" data-name="Path 11431" d="M1602.952,484.761h-50.04v1.053c0,6.848,2.107,12.115,5.794,16.329s8.955,6.321,15.275,6.321a22.556,22.556,0,0,0,11.589-3.16c3.16-2.107,6.321-5.794,8.955-10.535l8.428,5.267a31.257,31.257,0,0,1-12.115,12.642c-4.741,3.161-10.535,4.214-16.856,4.214-9.482,0-17.383-3.16-23.177-9.481s-8.955-14.749-8.955-24.757,3.161-17.91,8.955-24.231,13.168-9.481,22.65-9.481,16.856,3.161,22.123,8.955,7.9,14.222,7.9,24.23v2.634Zm-11.588-8.955c-.527-5.267-2.107-10.008-5.794-12.642-3.161-3.16-7.9-4.741-13.7-4.741a19.259,19.259,0,0,0-13.168,4.741c-3.688,3.161-5.268,7.375-5.8,12.642Z"/>
    <path id="Path_11432" data-name="Path 11432" d="M1639.824,518.472l-31.078-66.9h12.115l18.963,43.72,18.963-43.72H1670.9Z"/>
    <path id="Path_11433" data-name="Path 11433" d="M1677.224,483.18a36.66,36.66,0,0,1,2.634-13.169,33.9,33.9,0,0,1,18.436-18.436,34.246,34.246,0,0,1,26.337,0,33.9,33.9,0,0,1,18.436,18.436,34.237,34.237,0,0,1,0,26.338,33.9,33.9,0,0,1-18.436,18.436,34.246,34.246,0,0,1-26.337,0,33.9,33.9,0,0,1-18.436-18.436c-2.108-4.214-2.634-8.428-2.634-13.169m11.588,0a22.25,22.25,0,0,0,6.848,16.856c4.214,4.741,10.008,6.848,16.329,6.848a20.03,20.03,0,0,0,15.8-6.848c4.214-4.741,6.848-10.008,6.848-16.856a22.25,22.25,0,0,0-6.848-16.856,20.03,20.03,0,0,0-15.8-6.848,21.9,21.9,0,0,0-16.329,6.848,23.056,23.056,0,0,0-6.848,16.856"/>
    <rect id="Rectangle_2428" data-name="Rectangle 2428" width="11.062" height="106.403" transform="translate(1763.083 408.382)"/>
    <path id="Path_11434" data-name="Path 11434" d="M1806.8,451.576v31.078c0,8.955,1.58,15.276,4.214,18.963s7.374,5.267,13.7,5.267,11.062-1.58,13.7-5.267,3.687-10.008,3.687-18.963V451.576h11.062v36.872c0,9.482-2.634,16.856-7.375,21.6s-12.115,7.374-21.6,7.374-16.329-2.634-21.07-7.374-7.375-12.115-7.375-21.6V451.576Z"/>
    <path id="Path_11435" data-name="Path 11435" d="M1875.28,460.53h-11.589v-8.955h11.589V426.292h11.062v25.283h11.588v8.955h-11.588v54.255H1875.28Z"/>
    <path id="Path_11436" data-name="Path 11436" d="M1907.938,421.024a7.917,7.917,0,0,1,2.107-5.794c1.58-1.58,3.16-2.107,5.794-2.107a7.29,7.29,0,0,1,7.9,7.9c0,2.107-.527,4.214-2.107,5.268-1.58,1.58-3.16,2.107-5.794,2.107a7.922,7.922,0,0,1-5.794-2.107,7.021,7.021,0,0,1-2.107-5.268m2.634,31.078h11.062v62.683h-11.062Z"/>
    <path id="Path_11437" data-name="Path 11437" d="M1939.016,483.18a36.68,36.68,0,0,1,2.633-13.169,33.9,33.9,0,0,1,18.436-18.436,34.249,34.249,0,0,1,26.338,0,33.9,33.9,0,0,1,18.436,18.436,34.25,34.25,0,0,1,0,26.338,33.9,33.9,0,0,1-18.436,18.436,34.248,34.248,0,0,1-26.338,0,33.9,33.9,0,0,1-18.436-18.436,36.68,36.68,0,0,1-2.633-13.169m11.588,0a22.25,22.25,0,0,0,6.848,16.856c4.214,4.741,10.008,6.848,16.329,6.848a20.03,20.03,0,0,0,15.8-6.848c4.214-4.741,6.848-10.008,6.848-16.856a22.25,22.25,0,0,0-6.848-16.856,20.03,20.03,0,0,0-15.8-6.848,21.9,21.9,0,0,0-16.329,6.848,23.057,23.057,0,0,0-6.848,16.856"/>
    <path id="Path_11438" data-name="Path 11438" d="M2024.349,514.785V452.1h10.535v9.482a23.392,23.392,0,0,1,10.007-8.955,27.057,27.057,0,0,1,13.17-3.161c7.374,0,13.168,2.107,17.382,5.8s6.32,9.481,6.32,16.329v42.666H2070.7V477.386c0-6.321-1.579-11.062-4.212-14.222s-6.848-4.741-12.643-4.741a24.625,24.625,0,0,0-8.955,1.58,14.385,14.385,0,0,0-6.32,4.741c-1.581,1.58-2.107,3.687-2.634,5.794a47.991,47.991,0,0,0-1.053,11.062v32.658h-10.535Z"/>
    <path id="Path_11439" data-name="Path 11439" d="M290.892,463.462c-117.78,0-213.259-95.479-213.259-213.259S173.112,36.945,290.892,36.945a212.577,212.577,0,0,1,151.779,63.492A244.553,244.553,0,0,0,244.937,0C109.662,0,0,109.661,0,244.936S109.662,489.873,244.937,489.873a243.9,243.9,0,0,0,159.718-59.324,212.185,212.185,0,0,1-113.763,32.913" fill="#8fc73e"/>
    <path id="Path_11440" data-name="Path 11440" d="M364.216,71.247A172.981,172.981,0,0,1,276.964,393.6c-88.884,0-162.074-67.046-171.847-153.316-.178,3.387-.277,6.794-.277,10.226,0,105.831,85.793,191.625,191.624,191.625S488.089,356.34,488.089,250.509A191.668,191.668,0,0,0,364.216,71.247" fill="#8fc73e"/>
    <path id="Path_11441" data-name="Path 11441" d="M271.81,84.484A141.987,141.987,0,0,0,135.764,185.907a124.813,124.813,0,1,1,81.352,171.541A141.96,141.96,0,1,0,271.81,84.484" fill="#8fc73e"/>
  </g>
</svg>
